<?xml version="1.0"?>
<svg width="580" height="400" xmlns="http://www.w3.org/2000/svg">
 <!-- Created with Method Draw - http://github.com/duopixel/Method-Draw/ -->

 <g>
  <title>octocat ghost</title>
  <rect fill="#fff" id="canvas_background" height="402" width="582" y="-1" x="-1"/>
  <g display="none" overflow="visible" y="0" x="0" height="100%" width="100%" id="canvasGrid">
   <rect fill="url(#gridpattern)" stroke-width="0" y="0" x="0" height="100%" width="100%"/>
  </g>
 </g>
 <g>
  <title>Layer 1</title>
  <ellipse stroke="#000" opacity="0.16" transform="rotate(-171 408 -22.5)" stroke-dasharray="2,2" ry="31.73483" rx="16.132081" id="svg_3" cy="83.5" cx="368.000001" fill-opacity="null" stroke-opacity="null" stroke-width="8" fill="none"/>
  <path stroke="#000" id="svg_12" d="m410.505585,205.99678c-12.914978,-2.533432 -26.355316,-4.19101 -37.268311,-4.628983l-1.936707,-0.076263c0.443115,-1.12439 0.787903,-1.886429 0.886169,-2.000793c0.246185,-0.228241 0.426697,-1.180725 0.459686,-2.095688c0,-0.513885 0.180511,-2.171478 0.492188,-4.381668c2.953949,0.133347 6.876068,0.228775 11.159363,0.266937c16.525482,0.152527 33.822327,1.695755 45.68692,4.133911c7.073029,1.4478 9.403442,1.390686 4.184723,-0.076263c-5.28418,-1.486145 -20.940094,-3.676926 -33.41214,-4.610031c-8.385559,-0.66684 -20.398346,-0.914566 -27.470947,-0.781174c0.196625,-1.428879 0.442932,-3.010147 0.689026,-4.629623c1.000977,-6.286713 1.329315,-12.593155 1.345673,-25.167023c0.032776,-19.508347 -0.869751,-24.88118 -6.351074,-37.778702c-2.231995,-5.257874 -4.742584,-9.734985 -7.77829,-13.774483c2.658356,-9.106003 2.592773,-23.204277 -0.164337,-35.568573c-2.264648,-10.134933 -3.068848,-10.783173 -10.978546,-8.839828c-6.711914,1.657608 -12.094788,3.924461 -18.986969,7.963448c-3.265594,1.90509 -7.762329,4.877129 -11.011536,7.220352c-8.500763,-3.486336 -17.28064,-5.772255 -26.667328,-7.010414c-9.501648,-1.258087 -32.804657,-0.553123 -41.076019,1.21888c-8.090195,1.733871 -15.376541,3.86776 -21.957336,6.38221c-3.298416,-2.361923 -8.073898,-5.543961 -11.487427,-7.544106c-6.925095,-4.038986 -12.291367,-6.287247 -19.036148,-7.944855c-7.89357,-1.961937 -8.714203,-1.295563 -10.962204,8.839828c-2.806427,12.516922 -2.822647,26.843849 -0.049484,35.931297c0.311844,1.028671 0.508881,1.77179 0.590851,2.343086c-11.20845,16.384033 -14.867905,34.7117 -12.439209,60.29744c0.639969,6.667969 1.608521,12.783737 2.986588,18.384659c-7.154709,-0.056854 -17.3293,0.248108 -24.681229,0.800095c-12.48851,0.953079 -28.160797,3.124634 -33.428436,4.610733c-5.218925,1.466949 -2.904877,1.524063 4.184654,0.076263c11.848503,-2.419495 29.161552,-3.981979 45.686882,-4.115234c3.118347,-0.019272 6.022964,-0.094986 8.533646,-0.171249c0.754913,2.952911 1.608368,5.772339 2.592865,8.458542l-0.082016,0.018951c-10.913147,0.438629 -24.35318,2.095657 -37.268494,4.610733c-9.682251,1.885773 -23.992378,5.657852 -25.649559,6.74411c-1.756363,1.143173 -0.3284,0.895065 7.171432,-1.315048c13.702583,-4.01947 31.491936,-7.105942 53.547508,-9.25856l2.461823,-0.24762c4.726044,12.764328 12.028839,22.499878 22.318283,30.100876c6.318115,4.648804 16.41069,9.431015 21.498032,10.173752c1.394775,0.209259 5.464737,1.181244 9.025833,2.152954c3.593826,0.971313 10.584656,2.438263 15.557144,3.27652l0.114822,0c-0.098175,0.076263 -0.180634,0.114441 -0.262695,0.190704c-6.022583,3.638733 -9.944489,9.296722 -12.570267,18.19397c-1.18161,0.419312 -2.65863,0.971436 -4.250305,1.619415c-5.694504,2.247833 -7.910049,2.705109 -13.67009,2.743195c-5.973526,0.057098 -7.401367,-0.247284 -10.978592,-2.191132c-5.185883,-2.800262 -10.027176,-7.9823 -13.260025,-14.135925c-5.382584,-10.326019 -14.687332,-17.603439 -22.466125,-17.603439c-6.629562,0 -7.893509,3.105362 -3.085007,7.677902c7.220551,6.839447 12.619659,13.830933 14.835022,19.184814c1.247162,2.990936 3.167343,7.619873 4.266937,10.287598c1.181549,2.838745 3.67601,6.687073 6.071808,9.335083c5.612411,6.22995 11.027817,9.183044 19.118484,10.592743c5.415527,0.914001 6.761093,0.914001 13.161087,-0.019196c3.085266,-0.438385 5.678329,-0.952728 8.008759,-1.600281c0,3.048218 0,6.553497 0,10.687378c0,22.042664 -0.213577,29.130035 -0.968597,31.206573c-1.427673,3.943787 -4.611328,8.001404 -7.696579,9.830627c-3.101471,1.828644 -4.053391,3.828918 -2.756943,5.677185c0.722107,0.990326 2.117004,1.180969 6.777771,0.819275c8.828735,-0.628662 15.081039,-4.4198 18.264816,-11.126221c1.017746,-2.133362 1.263733,-6.457947 1.575699,-28.939056c0.344513,-24.385986 0.508682,-26.728668 1.870697,-30.215454c0.820633,-2.07663 2.018311,-4.305542 2.69133,-4.934265c1.115753,-1.066437 1.181641,1.048096 1.181641,30.215393c0,32.196808 -0.279114,36.083496 -3.052338,42.274811c-0.624008,1.4104 -1.805405,3.239014 -2.642197,4.115479c-1.444382,1.543213 -2.067719,5.467529 -1.050369,6.649017c1.657257,1.92395 10.026764,-1.086273 14.588867,-5.258331c7.762451,-7.144135 8.681244,-13.049988 8.746887,-55.705933l0.033173,-25.014465l2.346466,0.266327l2.363068,0.247589l0.394257,32.711792c0.42627,36.844727 0.492096,37.397827 5.891235,44.503784c3.068573,4.019897 6.1539,6.249054 11.17572,7.982178c6.728363,2.343506 8.746918,-1.276276 4.233795,-7.563538c-4.923035,-6.819946 -5.153015,-9.430267 -4.890289,-49.857269c0.180298,-25.92865 0.180298,-25.92865 1.624542,-24.404938c3.03595,3.181885 3.61026,8.439941 3.61026,32.749664c0,30.177216 0.754944,33.054047 9.928619,38.33136c4.299591,2.419281 5.497528,2.724335 10.995178,2.743317c5.858521,0.038055 6.203033,-0.057068 6.416534,-1.847778c0.196594,-1.428833 -0.525269,-2.400574 -3.265839,-4.344055c-3.577515,-2.552582 -6.055603,-5.82962 -7.614502,-9.944641c-0.607422,-1.581329 -1.000977,-11.964478 -1.264069,-33.359161c-0.393524,-29.872314 -0.475677,-31.244019 -2.083771,-35.911774c-2.149841,-6.305908 -5.464813,-11.278015 -9.633057,-14.574097c-1.099426,-0.819275 -2.182526,-1.505005 -3.593842,-2.019257c1.739349,-0.190704 3.413361,-0.400574 5.037811,-0.685852c16.903259,-2.610565 25.846802,-4.782166 33.01828,-8.001434c15.179901,-6.782776 25.436157,-18.042038 30.999695,-34.006729c0.492004,-1.428787 0.984406,-2.781372 1.411194,-3.867783l4.266754,0.419479c22.072418,2.15274 39.861542,5.238602 53.547729,9.278015c7.516174,2.209473 8.943756,2.47644 7.188141,1.314423c-1.624817,-1.066818 -15.934937,-4.819992 -25.617126,-6.706482zm-64.674286,-0.39949c-2.510498,6.400909 -9.501953,14.611969 -15.14679,17.832169c-5.563141,3.200073 -14.310211,5.638962 -24.205627,6.800858c-6.761414,0.800018 -44.489075,1.028809 -50.708984,0.323898c-20.62822,-2.343307 -32.164825,-6.954086 -40.681778,-16.174591c-8.074036,-8.782333 -11.832047,-20.670471 -11.175781,-35.321198c0.41011,-9.164078 2.313889,-14.917511 7.302704,-21.909042c4.529251,-6.36351 9.288513,-10.306808 14.901169,-12.306976c4.693283,-1.657578 19.118118,-1.810104 38.515472,-0.362411c8.566467,0.628738 15.655945,0.628738 24.222168,0c20.283234,-1.485855 33.822266,-1.333328 38.827423,0.476212c7.860596,2.820099 15.015594,10.402237 19.315308,20.518356c1.936371,4.515274 2.313782,6.439804 2.592773,13.431335c0.393707,9.601929 -1.0336,19.813446 -3.758057,26.691391zm-102.287308,-41.265656c-11.536743,-2.34343 -18.133835,20.594589 -9.27182,32.292099c4.200714,5.563354 7.926117,6.477325 12.60347,3.105759c4.315796,-3.14386 6.66246,-8.992813 6.66246,-16.594452c0,-10.116135 -3.971313,-17.565247 -9.99411,-18.803406zm70.056717,1.371719c-11.55304,-2.343353 -18.149933,20.556213 -9.304413,32.292313c4.217438,5.543945 7.942505,6.477051 12.619843,3.086349c4.316101,-3.124527 6.679169,-8.99234 6.679169,-16.593781c0,-10.078629 -3.971588,-17.546707 -9.994598,-18.784882zm-31.048767,45.094727c-0.245697,0.933899 -1.44397,2.305222 -2.658295,3.029022c-3.085388,1.848145 -5.30069,1.200104 -8.550232,-2.228821c-2.002075,-2.114624 -2.920807,-3.21962 -3.528107,-1.009903c-0.574371,2.03862 3.003235,6.153778 5.77655,7.411026c2.527222,1.181015 4.348785,1.21907 7.105713,-0.114563c2.724243,-1.333282 5.120178,-4.895874 5.120178,-7.201065c0,-2.152588 -2.658234,-2.038223 -3.265808,0.114304zm-3.39679,-7.182205c1.739685,-1.791153 2.14975,-5.48703 0.459534,-7.449127s-5.087402,-1.657623 -6.416534,0.533249c-1.54245,2.571915 -0.722321,4.534546 0.393707,6.629852c1.723083,1.543259 4.036987,1.847961 5.563293,0.286026z" fill-opacity="null" stroke-opacity="null" stroke-dasharray="2,2" fill="none"/>
 </g>
</svg>
